<mxfile host="app.diagrams.net" modified="2021-08-12T06:06:40.937Z" agent="5.0 (Windows NT 10.0; Win64; x64) AppleWebKit/537.36 (KHTML, like Gecko) Chrome/92.0.4515.131 Safari/537.36" etag="YnNCwsi_hZasRtyNKU8_" version="14.9.5" type="github">
  <diagram id="R2lEEEUBdFMjLlhIrx00" name="Page-1">
    <mxGraphModel dx="4760" dy="3280" grid="1" gridSize="10" guides="1" tooltips="1" connect="1" arrows="1" fold="1" page="1" pageScale="1" pageWidth="850" pageHeight="1100" math="0" shadow="0" extFonts="Permanent Marker^https://fonts.googleapis.com/css?family=Permanent+Marker">
      <root>
        <mxCell id="0" />
        <mxCell id="1" parent="0" />
        <mxCell id="zyeRF9RpLuEIu011Ur1t-2" value="Employees" style="rounded=0;whiteSpace=wrap;html=1;" parent="1" vertex="1">
          <mxGeometry x="-420" y="810" width="120" height="60" as="geometry" />
        </mxCell>
        <mxCell id="zyeRF9RpLuEIu011Ur1t-27" value="EID" style="ellipse;whiteSpace=wrap;html=1;" parent="1" vertex="1">
          <mxGeometry x="-500" y="690" width="100" height="60" as="geometry" />
        </mxCell>
        <mxCell id="zyeRF9RpLuEIu011Ur1t-28" value="SSN" style="ellipse;whiteSpace=wrap;html=1;" parent="1" vertex="1">
          <mxGeometry x="-610" y="710" width="100" height="60" as="geometry" />
        </mxCell>
        <mxCell id="zyeRF9RpLuEIu011Ur1t-29" value="First Name" style="ellipse;whiteSpace=wrap;html=1;" parent="1" vertex="1">
          <mxGeometry x="-660" y="830" width="100" height="60" as="geometry" />
        </mxCell>
        <mxCell id="zyeRF9RpLuEIu011Ur1t-30" value="Last Name" style="ellipse;whiteSpace=wrap;html=1;" parent="1" vertex="1">
          <mxGeometry x="-590" y="940" width="100" height="60" as="geometry" />
        </mxCell>
        <mxCell id="zyeRF9RpLuEIu011Ur1t-31" value="Address" style="ellipse;whiteSpace=wrap;html=1;" parent="1" vertex="1">
          <mxGeometry x="-400" y="680" width="100" height="60" as="geometry" />
        </mxCell>
        <mxCell id="zyeRF9RpLuEIu011Ur1t-32" value="City" style="ellipse;whiteSpace=wrap;html=1;" parent="1" vertex="1">
          <mxGeometry x="-210" y="720" width="100" height="60" as="geometry" />
        </mxCell>
        <mxCell id="zyeRF9RpLuEIu011Ur1t-33" value="Postal Code" style="ellipse;whiteSpace=wrap;html=1;" parent="1" vertex="1">
          <mxGeometry x="-490" y="960" width="100" height="60" as="geometry" />
        </mxCell>
        <mxCell id="zyeRF9RpLuEIu011Ur1t-34" value="Province" style="ellipse;whiteSpace=wrap;html=1;" parent="1" vertex="1">
          <mxGeometry x="-390" y="950" width="100" height="60" as="geometry" />
        </mxCell>
        <mxCell id="zyeRF9RpLuEIu011Ur1t-36" value="E-amil" style="ellipse;whiteSpace=wrap;html=1;" parent="1" vertex="1">
          <mxGeometry x="-280" y="930" width="100" height="60" as="geometry" />
        </mxCell>
        <mxCell id="zyeRF9RpLuEIu011Ur1t-37" value="Phone" style="ellipse;whiteSpace=wrap;html=1;" parent="1" vertex="1">
          <mxGeometry x="-210" y="790" width="100" height="60" as="geometry" />
        </mxCell>
        <mxCell id="zyeRF9RpLuEIu011Ur1t-38" value="" style="endArrow=none;html=1;entryX=0.25;entryY=0;entryDx=0;entryDy=0;exitX=0.7;exitY=1;exitDx=0;exitDy=0;exitPerimeter=0;" parent="1" target="zyeRF9RpLuEIu011Ur1t-2" edge="1" source="zyeRF9RpLuEIu011Ur1t-27">
          <mxGeometry width="50" height="50" relative="1" as="geometry">
            <mxPoint x="-430" y="770" as="sourcePoint" />
            <mxPoint x="-390" y="700" as="targetPoint" />
          </mxGeometry>
        </mxCell>
        <mxCell id="zyeRF9RpLuEIu011Ur1t-39" value="" style="endArrow=none;html=1;entryX=0.5;entryY=1;entryDx=0;entryDy=0;exitX=0.75;exitY=0;exitDx=0;exitDy=0;" parent="1" source="zyeRF9RpLuEIu011Ur1t-2" target="zyeRF9RpLuEIu011Ur1t-31" edge="1">
          <mxGeometry width="50" height="50" relative="1" as="geometry">
            <mxPoint x="-440" y="750" as="sourcePoint" />
            <mxPoint x="-390" y="700" as="targetPoint" />
          </mxGeometry>
        </mxCell>
        <mxCell id="zyeRF9RpLuEIu011Ur1t-40" value="" style="endArrow=none;html=1;entryX=1;entryY=1;entryDx=0;entryDy=0;exitX=0;exitY=0;exitDx=0;exitDy=0;" parent="1" source="zyeRF9RpLuEIu011Ur1t-2" target="zyeRF9RpLuEIu011Ur1t-28" edge="1">
          <mxGeometry width="50" height="50" relative="1" as="geometry">
            <mxPoint x="-440" y="750" as="sourcePoint" />
            <mxPoint x="-390" y="700" as="targetPoint" />
          </mxGeometry>
        </mxCell>
        <mxCell id="zyeRF9RpLuEIu011Ur1t-41" value="" style="endArrow=none;html=1;entryX=1;entryY=0.5;entryDx=0;entryDy=0;exitX=0;exitY=0.5;exitDx=0;exitDy=0;" parent="1" source="zyeRF9RpLuEIu011Ur1t-2" target="zyeRF9RpLuEIu011Ur1t-29" edge="1">
          <mxGeometry width="50" height="50" relative="1" as="geometry">
            <mxPoint x="-440" y="750" as="sourcePoint" />
            <mxPoint x="-390" y="700" as="targetPoint" />
          </mxGeometry>
        </mxCell>
        <mxCell id="zyeRF9RpLuEIu011Ur1t-42" value="" style="endArrow=none;html=1;entryX=0;entryY=1;entryDx=0;entryDy=0;exitX=1;exitY=0.5;exitDx=0;exitDy=0;" parent="1" source="zyeRF9RpLuEIu011Ur1t-30" target="zyeRF9RpLuEIu011Ur1t-2" edge="1">
          <mxGeometry width="50" height="50" relative="1" as="geometry">
            <mxPoint x="-440" y="750" as="sourcePoint" />
            <mxPoint x="-390" y="700" as="targetPoint" />
          </mxGeometry>
        </mxCell>
        <mxCell id="zyeRF9RpLuEIu011Ur1t-43" value="" style="endArrow=none;html=1;entryX=0.25;entryY=1;entryDx=0;entryDy=0;exitX=0.5;exitY=0;exitDx=0;exitDy=0;" parent="1" source="zyeRF9RpLuEIu011Ur1t-33" target="zyeRF9RpLuEIu011Ur1t-2" edge="1">
          <mxGeometry width="50" height="50" relative="1" as="geometry">
            <mxPoint x="-440" y="750" as="sourcePoint" />
            <mxPoint x="-390" y="700" as="targetPoint" />
          </mxGeometry>
        </mxCell>
        <mxCell id="zyeRF9RpLuEIu011Ur1t-44" value="" style="endArrow=none;html=1;entryX=0.75;entryY=1;entryDx=0;entryDy=0;exitX=0.5;exitY=0;exitDx=0;exitDy=0;" parent="1" source="zyeRF9RpLuEIu011Ur1t-34" target="zyeRF9RpLuEIu011Ur1t-2" edge="1">
          <mxGeometry width="50" height="50" relative="1" as="geometry">
            <mxPoint x="-440" y="750" as="sourcePoint" />
            <mxPoint x="-390" y="700" as="targetPoint" />
          </mxGeometry>
        </mxCell>
        <mxCell id="zyeRF9RpLuEIu011Ur1t-45" value="" style="endArrow=none;html=1;entryX=0;entryY=1;entryDx=0;entryDy=0;exitX=1;exitY=0;exitDx=0;exitDy=0;" parent="1" source="zyeRF9RpLuEIu011Ur1t-2" target="zyeRF9RpLuEIu011Ur1t-32" edge="1">
          <mxGeometry width="50" height="50" relative="1" as="geometry">
            <mxPoint x="-440" y="750" as="sourcePoint" />
            <mxPoint x="-390" y="700" as="targetPoint" />
          </mxGeometry>
        </mxCell>
        <mxCell id="zyeRF9RpLuEIu011Ur1t-46" value="" style="endArrow=none;html=1;entryX=0;entryY=0.5;entryDx=0;entryDy=0;exitX=1;exitY=0.5;exitDx=0;exitDy=0;" parent="1" source="zyeRF9RpLuEIu011Ur1t-2" target="zyeRF9RpLuEIu011Ur1t-37" edge="1">
          <mxGeometry width="50" height="50" relative="1" as="geometry">
            <mxPoint x="-440" y="750" as="sourcePoint" />
            <mxPoint x="-390" y="700" as="targetPoint" />
          </mxGeometry>
        </mxCell>
        <mxCell id="zyeRF9RpLuEIu011Ur1t-47" value="" style="endArrow=none;html=1;entryX=0;entryY=0.5;entryDx=0;entryDy=0;exitX=1;exitY=1;exitDx=0;exitDy=0;" parent="1" source="zyeRF9RpLuEIu011Ur1t-2" target="zyeRF9RpLuEIu011Ur1t-36" edge="1">
          <mxGeometry width="50" height="50" relative="1" as="geometry">
            <mxPoint x="-440" y="750" as="sourcePoint" />
            <mxPoint x="-390" y="700" as="targetPoint" />
          </mxGeometry>
        </mxCell>
        <mxCell id="zyeRF9RpLuEIu011Ur1t-97" value="Femployees" style="rhombus;whiteSpace=wrap;html=1;" parent="1" vertex="1">
          <mxGeometry x="760" y="900" width="120" height="80" as="geometry" />
        </mxCell>
        <mxCell id="zyeRF9RpLuEIu011Ur1t-100" value="Start Date" style="ellipse;whiteSpace=wrap;html=1;" parent="1" vertex="1">
          <mxGeometry x="630" y="960" width="100" height="60" as="geometry" />
        </mxCell>
        <mxCell id="zyeRF9RpLuEIu011Ur1t-101" value="End Date" style="ellipse;whiteSpace=wrap;html=1;" parent="1" vertex="1">
          <mxGeometry x="730" y="1030" width="100" height="60" as="geometry" />
        </mxCell>
        <mxCell id="zyeRF9RpLuEIu011Ur1t-102" value="FID" style="ellipse;whiteSpace=wrap;html=1;" parent="1" vertex="1">
          <mxGeometry x="710" y="760" width="100" height="60" as="geometry" />
        </mxCell>
        <mxCell id="zyeRF9RpLuEIu011Ur1t-103" value="EID" style="ellipse;whiteSpace=wrap;html=1;" parent="1" vertex="1">
          <mxGeometry x="860" y="740" width="100" height="60" as="geometry" />
        </mxCell>
        <mxCell id="zyeRF9RpLuEIu011Ur1t-104" value="" style="endArrow=none;html=1;entryX=1;entryY=1;entryDx=0;entryDy=0;exitX=0.5;exitY=0;exitDx=0;exitDy=0;" parent="1" source="zyeRF9RpLuEIu011Ur1t-97" target="zyeRF9RpLuEIu011Ur1t-103" edge="1">
          <mxGeometry width="50" height="50" relative="1" as="geometry">
            <mxPoint x="940" y="1000" as="sourcePoint" />
            <mxPoint x="990" y="950" as="targetPoint" />
          </mxGeometry>
        </mxCell>
        <mxCell id="zyeRF9RpLuEIu011Ur1t-105" value="" style="endArrow=none;html=1;entryX=0;entryY=0.5;entryDx=0;entryDy=0;exitX=1;exitY=0.5;exitDx=0;exitDy=0;" parent="1" source="zyeRF9RpLuEIu011Ur1t-102" target="zyeRF9RpLuEIu011Ur1t-97" edge="1">
          <mxGeometry width="50" height="50" relative="1" as="geometry">
            <mxPoint x="940" y="1000" as="sourcePoint" />
            <mxPoint x="990" y="950" as="targetPoint" />
          </mxGeometry>
        </mxCell>
        <mxCell id="zyeRF9RpLuEIu011Ur1t-106" value="" style="endArrow=none;html=1;entryX=0;entryY=1;entryDx=0;entryDy=0;exitX=1;exitY=0.5;exitDx=0;exitDy=0;" parent="1" source="zyeRF9RpLuEIu011Ur1t-100" target="zyeRF9RpLuEIu011Ur1t-97" edge="1">
          <mxGeometry width="50" height="50" relative="1" as="geometry">
            <mxPoint x="940" y="1000" as="sourcePoint" />
            <mxPoint x="990" y="950" as="targetPoint" />
          </mxGeometry>
        </mxCell>
        <mxCell id="zyeRF9RpLuEIu011Ur1t-107" value="" style="endArrow=none;html=1;entryX=0.5;entryY=1;entryDx=0;entryDy=0;exitX=0.5;exitY=0;exitDx=0;exitDy=0;" parent="1" source="zyeRF9RpLuEIu011Ur1t-101" target="zyeRF9RpLuEIu011Ur1t-97" edge="1">
          <mxGeometry width="50" height="50" relative="1" as="geometry">
            <mxPoint x="940" y="1000" as="sourcePoint" />
            <mxPoint x="990" y="950" as="targetPoint" />
          </mxGeometry>
        </mxCell>
        <mxCell id="xvGsw13Cp8ln53Kksg4_-1" value="id" style="ellipse;whiteSpace=wrap;html=1;" vertex="1" parent="1">
          <mxGeometry x="-660" y="770" width="100" height="60" as="geometry" />
        </mxCell>
        <mxCell id="xvGsw13Cp8ln53Kksg4_-5" value="" style="endArrow=none;html=1;entryX=1;entryY=0.5;entryDx=0;entryDy=0;" edge="1" parent="1" target="xvGsw13Cp8ln53Kksg4_-1">
          <mxGeometry width="50" height="50" relative="1" as="geometry">
            <mxPoint x="-420" y="840" as="sourcePoint" />
            <mxPoint x="-210" y="790" as="targetPoint" />
          </mxGeometry>
        </mxCell>
        <mxCell id="xvGsw13Cp8ln53Kksg4_-7" value="medcard" style="ellipse;whiteSpace=wrap;html=1;" vertex="1" parent="1">
          <mxGeometry x="-670" y="900" width="100" height="60" as="geometry" />
        </mxCell>
        <mxCell id="xvGsw13Cp8ln53Kksg4_-8" value="citizenship" style="ellipse;whiteSpace=wrap;html=1;" vertex="1" parent="1">
          <mxGeometry x="-290" y="680" width="100" height="60" as="geometry" />
        </mxCell>
        <mxCell id="xvGsw13Cp8ln53Kksg4_-9" value="birth" style="ellipse;whiteSpace=wrap;html=1;" vertex="1" parent="1">
          <mxGeometry x="-190" y="890" width="100" height="60" as="geometry" />
        </mxCell>
        <mxCell id="xvGsw13Cp8ln53Kksg4_-10" value="" style="endArrow=none;html=1;entryX=0;entryY=0.75;entryDx=0;entryDy=0;exitX=1;exitY=0.5;exitDx=0;exitDy=0;" edge="1" parent="1" source="xvGsw13Cp8ln53Kksg4_-7" target="zyeRF9RpLuEIu011Ur1t-2">
          <mxGeometry width="50" height="50" relative="1" as="geometry">
            <mxPoint x="-260" y="980" as="sourcePoint" />
            <mxPoint x="-210" y="930" as="targetPoint" />
          </mxGeometry>
        </mxCell>
        <mxCell id="xvGsw13Cp8ln53Kksg4_-12" value="" style="endArrow=none;html=1;entryX=0.5;entryY=1;entryDx=0;entryDy=0;" edge="1" parent="1" source="zyeRF9RpLuEIu011Ur1t-2" target="xvGsw13Cp8ln53Kksg4_-8">
          <mxGeometry width="50" height="50" relative="1" as="geometry">
            <mxPoint x="-260" y="980" as="sourcePoint" />
            <mxPoint x="-210" y="930" as="targetPoint" />
          </mxGeometry>
        </mxCell>
        <mxCell id="xvGsw13Cp8ln53Kksg4_-13" value="" style="endArrow=none;html=1;entryX=0.016;entryY=0.212;entryDx=0;entryDy=0;entryPerimeter=0;exitX=1;exitY=1;exitDx=0;exitDy=0;" edge="1" parent="1" source="zyeRF9RpLuEIu011Ur1t-2" target="xvGsw13Cp8ln53Kksg4_-9">
          <mxGeometry width="50" height="50" relative="1" as="geometry">
            <mxPoint x="-260" y="980" as="sourcePoint" />
            <mxPoint x="-210" y="930" as="targetPoint" />
          </mxGeometry>
        </mxCell>
        <mxCell id="xvGsw13Cp8ln53Kksg4_-14" value="Facitity" style="rounded=0;whiteSpace=wrap;html=1;" vertex="1" parent="1">
          <mxGeometry x="1690" y="595" width="110" height="50" as="geometry" />
        </mxCell>
        <mxCell id="xvGsw13Cp8ln53Kksg4_-15" value="type" style="ellipse;whiteSpace=wrap;html=1;" vertex="1" parent="1">
          <mxGeometry x="1885" y="720" width="105" height="40" as="geometry" />
        </mxCell>
        <mxCell id="xvGsw13Cp8ln53Kksg4_-16" value="Phone number" style="ellipse;whiteSpace=wrap;html=1;" vertex="1" parent="1">
          <mxGeometry x="1552.5" y="740" width="105" height="40" as="geometry" />
        </mxCell>
        <mxCell id="xvGsw13Cp8ln53Kksg4_-17" value="Name" style="ellipse;whiteSpace=wrap;html=1;" vertex="1" parent="1">
          <mxGeometry x="1744" y="420" width="105" height="40" as="geometry" />
        </mxCell>
        <mxCell id="xvGsw13Cp8ln53Kksg4_-18" value="Address" style="ellipse;whiteSpace=wrap;html=1;" vertex="1" parent="1">
          <mxGeometry x="1990" y="565" width="105" height="40" as="geometry" />
        </mxCell>
        <mxCell id="xvGsw13Cp8ln53Kksg4_-19" value="" style="endArrow=none;html=1;entryX=0.5;entryY=1;entryDx=0;entryDy=0;exitX=0.5;exitY=0;exitDx=0;exitDy=0;" edge="1" parent="1" source="xvGsw13Cp8ln53Kksg4_-16" target="xvGsw13Cp8ln53Kksg4_-14">
          <mxGeometry width="50" height="50" relative="1" as="geometry">
            <mxPoint x="900" y="645" as="sourcePoint" />
            <mxPoint x="950" y="595" as="targetPoint" />
          </mxGeometry>
        </mxCell>
        <mxCell id="xvGsw13Cp8ln53Kksg4_-20" value="" style="endArrow=none;html=1;entryX=0.5;entryY=1;entryDx=0;entryDy=0;exitX=0.5;exitY=0;exitDx=0;exitDy=0;" edge="1" parent="1" source="xvGsw13Cp8ln53Kksg4_-15" target="xvGsw13Cp8ln53Kksg4_-14">
          <mxGeometry width="50" height="50" relative="1" as="geometry">
            <mxPoint x="900" y="645" as="sourcePoint" />
            <mxPoint x="950" y="595" as="targetPoint" />
          </mxGeometry>
        </mxCell>
        <mxCell id="xvGsw13Cp8ln53Kksg4_-21" value="" style="endArrow=none;html=1;entryX=0;entryY=1;entryDx=0;entryDy=0;exitX=1;exitY=0.5;exitDx=0;exitDy=0;" edge="1" parent="1" source="xvGsw13Cp8ln53Kksg4_-14" target="xvGsw13Cp8ln53Kksg4_-17">
          <mxGeometry width="50" height="50" relative="1" as="geometry">
            <mxPoint x="900" y="645" as="sourcePoint" />
            <mxPoint x="950" y="595" as="targetPoint" />
          </mxGeometry>
        </mxCell>
        <mxCell id="xvGsw13Cp8ln53Kksg4_-22" value="" style="endArrow=none;html=1;entryX=0;entryY=0;entryDx=0;entryDy=0;exitX=1;exitY=0.5;exitDx=0;exitDy=0;" edge="1" parent="1" source="xvGsw13Cp8ln53Kksg4_-14" target="xvGsw13Cp8ln53Kksg4_-18">
          <mxGeometry width="50" height="50" relative="1" as="geometry">
            <mxPoint x="900" y="645" as="sourcePoint" />
            <mxPoint x="950" y="595" as="targetPoint" />
          </mxGeometry>
        </mxCell>
        <mxCell id="xvGsw13Cp8ln53Kksg4_-23" value="&lt;u&gt;FacitiyID&lt;/u&gt;" style="ellipse;whiteSpace=wrap;html=1;" vertex="1" parent="1">
          <mxGeometry x="1604.5" y="450" width="115" height="50" as="geometry" />
        </mxCell>
        <mxCell id="xvGsw13Cp8ln53Kksg4_-24" value="" style="endArrow=none;html=1;entryX=0.5;entryY=1;entryDx=0;entryDy=0;exitX=0.5;exitY=0;exitDx=0;exitDy=0;" edge="1" parent="1" source="xvGsw13Cp8ln53Kksg4_-14" target="xvGsw13Cp8ln53Kksg4_-23">
          <mxGeometry width="50" height="50" relative="1" as="geometry">
            <mxPoint x="980" y="785" as="sourcePoint" />
            <mxPoint x="1030" y="735" as="targetPoint" />
          </mxGeometry>
        </mxCell>
        <mxCell id="xvGsw13Cp8ln53Kksg4_-25" value="web address" style="ellipse;whiteSpace=wrap;html=1;" vertex="1" parent="1">
          <mxGeometry x="2005" y="690" width="105" height="40" as="geometry" />
        </mxCell>
        <mxCell id="xvGsw13Cp8ln53Kksg4_-26" value="" style="endArrow=none;html=1;entryX=0;entryY=0;entryDx=0;entryDy=0;" edge="1" parent="1" target="xvGsw13Cp8ln53Kksg4_-25" source="xvGsw13Cp8ln53Kksg4_-14">
          <mxGeometry width="50" height="50" relative="1" as="geometry">
            <mxPoint x="1820" y="715" as="sourcePoint" />
            <mxPoint x="970" y="690" as="targetPoint" />
          </mxGeometry>
        </mxCell>
        <mxCell id="xvGsw13Cp8ln53Kksg4_-27" value="Province" style="ellipse;whiteSpace=wrap;html=1;" vertex="1" parent="1">
          <mxGeometry x="1949.5" y="495" width="105" height="40" as="geometry" />
        </mxCell>
        <mxCell id="xvGsw13Cp8ln53Kksg4_-28" value="" style="endArrow=none;html=1;exitX=1;exitY=0.5;exitDx=0;exitDy=0;entryX=0;entryY=1;entryDx=0;entryDy=0;" edge="1" parent="1" target="xvGsw13Cp8ln53Kksg4_-27" source="xvGsw13Cp8ln53Kksg4_-14">
          <mxGeometry width="50" height="50" relative="1" as="geometry">
            <mxPoint x="1870" y="555" as="sourcePoint" />
            <mxPoint x="1991" y="556" as="targetPoint" />
          </mxGeometry>
        </mxCell>
        <mxCell id="xvGsw13Cp8ln53Kksg4_-29" value="ManagerID" style="ellipse;whiteSpace=wrap;html=1;" vertex="1" parent="1">
          <mxGeometry x="1885" y="435" width="105" height="40" as="geometry" />
        </mxCell>
        <mxCell id="xvGsw13Cp8ln53Kksg4_-30" value="" style="endArrow=none;html=1;entryX=0;entryY=0;entryDx=0;entryDy=0;" edge="1" parent="1" target="xvGsw13Cp8ln53Kksg4_-29">
          <mxGeometry width="50" height="50" relative="1" as="geometry">
            <mxPoint x="1810" y="620" as="sourcePoint" />
            <mxPoint x="1000" y="450" as="targetPoint" />
          </mxGeometry>
        </mxCell>
        <mxCell id="xvGsw13Cp8ln53Kksg4_-31" value="inventory" style="ellipse;whiteSpace=wrap;html=1;" vertex="1" parent="1">
          <mxGeometry x="2015" y="620" width="105" height="40" as="geometry" />
        </mxCell>
        <mxCell id="xvGsw13Cp8ln53Kksg4_-32" value="" style="endArrow=none;html=1;entryX=0;entryY=0;entryDx=0;entryDy=0;exitX=1;exitY=1;exitDx=0;exitDy=0;" edge="1" parent="1" target="xvGsw13Cp8ln53Kksg4_-31" source="xvGsw13Cp8ln53Kksg4_-14">
          <mxGeometry width="50" height="50" relative="1" as="geometry">
            <mxPoint x="1852.5" y="675" as="sourcePoint" />
            <mxPoint x="1002.5" y="650" as="targetPoint" />
          </mxGeometry>
        </mxCell>
        <mxCell id="xvGsw13Cp8ln53Kksg4_-33" value="" style="rounded=0;whiteSpace=wrap;html=1;" vertex="1" parent="1">
          <mxGeometry x="1388.5" y="165" width="140" height="70" as="geometry" />
        </mxCell>
        <mxCell id="xvGsw13Cp8ln53Kksg4_-35" value="Group aged" style="rounded=0;whiteSpace=wrap;html=1;" vertex="1" parent="1">
          <mxGeometry x="1401" y="175" width="110" height="50" as="geometry" />
        </mxCell>
        <mxCell id="xvGsw13Cp8ln53Kksg4_-36" value="&lt;u&gt;ID&lt;/u&gt;" style="ellipse;whiteSpace=wrap;html=1;" vertex="1" parent="1">
          <mxGeometry x="1211" y="-15" width="105" height="40" as="geometry" />
        </mxCell>
        <mxCell id="xvGsw13Cp8ln53Kksg4_-37" value="Min" style="ellipse;whiteSpace=wrap;html=1;" vertex="1" parent="1">
          <mxGeometry x="1481" y="-5" width="105" height="40" as="geometry" />
        </mxCell>
        <mxCell id="xvGsw13Cp8ln53Kksg4_-38" value="" style="endArrow=none;html=1;exitX=0.67;exitY=1.028;exitDx=0;exitDy=0;exitPerimeter=0;entryX=0;entryY=0.5;entryDx=0;entryDy=0;" edge="1" parent="1" source="xvGsw13Cp8ln53Kksg4_-36" target="xvGsw13Cp8ln53Kksg4_-33">
          <mxGeometry width="50" height="50" relative="1" as="geometry">
            <mxPoint x="1300" y="15" as="sourcePoint" />
            <mxPoint x="1381" y="185" as="targetPoint" />
          </mxGeometry>
        </mxCell>
        <mxCell id="xvGsw13Cp8ln53Kksg4_-39" value="" style="endArrow=none;html=1;exitX=0.5;exitY=0;exitDx=0;exitDy=0;entryX=0.5;entryY=0;entryDx=0;entryDy=0;" edge="1" parent="1" source="xvGsw13Cp8ln53Kksg4_-40" target="xvGsw13Cp8ln53Kksg4_-33">
          <mxGeometry width="50" height="50" relative="1" as="geometry">
            <mxPoint x="801" y="745" as="sourcePoint" />
            <mxPoint x="1441" y="145" as="targetPoint" />
          </mxGeometry>
        </mxCell>
        <mxCell id="xvGsw13Cp8ln53Kksg4_-40" value="Max" style="ellipse;whiteSpace=wrap;html=1;" vertex="1" parent="1">
          <mxGeometry x="1341" y="-25" width="105" height="40" as="geometry" />
        </mxCell>
        <mxCell id="xvGsw13Cp8ln53Kksg4_-41" value="" style="endArrow=none;html=1;exitX=0.331;exitY=1.083;exitDx=0;exitDy=0;exitPerimeter=0;entryX=0.75;entryY=0;entryDx=0;entryDy=0;" edge="1" parent="1" source="xvGsw13Cp8ln53Kksg4_-37" target="xvGsw13Cp8ln53Kksg4_-33">
          <mxGeometry width="50" height="50" relative="1" as="geometry">
            <mxPoint x="931.6750572151159" y="760.7451834381095" as="sourcePoint" />
            <mxPoint x="1505" y="155" as="targetPoint" />
          </mxGeometry>
        </mxCell>
        <mxCell id="xvGsw13Cp8ln53Kksg4_-44" value="number" style="ellipse;whiteSpace=wrap;html=1;" vertex="1" parent="1">
          <mxGeometry x="50" y="525" width="80" height="40" as="geometry" />
        </mxCell>
        <mxCell id="xvGsw13Cp8ln53Kksg4_-45" value="date of the infection" style="ellipse;whiteSpace=wrap;html=1;" vertex="1" parent="1">
          <mxGeometry x="285" y="505" width="95" height="70" as="geometry" />
        </mxCell>
        <mxCell id="xvGsw13Cp8ln53Kksg4_-46" value="" style="endArrow=none;html=1;exitX=0.5;exitY=0;exitDx=0;exitDy=0;entryX=0;entryY=0.5;entryDx=0;entryDy=0;" edge="1" parent="1" source="xvGsw13Cp8ln53Kksg4_-44" target="xvGsw13Cp8ln53Kksg4_-52">
          <mxGeometry width="50" height="50" relative="1" as="geometry">
            <mxPoint x="780" y="405" as="sourcePoint" />
            <mxPoint x="400" y="365" as="targetPoint" />
          </mxGeometry>
        </mxCell>
        <mxCell id="xvGsw13Cp8ln53Kksg4_-47" value="" style="endArrow=none;html=1;exitX=0.5;exitY=0;exitDx=0;exitDy=0;entryX=0.75;entryY=1;entryDx=0;entryDy=0;" edge="1" parent="1" source="xvGsw13Cp8ln53Kksg4_-45" target="xvGsw13Cp8ln53Kksg4_-52">
          <mxGeometry width="50" height="50" relative="1" as="geometry">
            <mxPoint x="780" y="405" as="sourcePoint" />
            <mxPoint x="493.30999999999995" y="384.28999999999996" as="targetPoint" />
          </mxGeometry>
        </mxCell>
        <mxCell id="xvGsw13Cp8ln53Kksg4_-48" value="&lt;u&gt;&lt;br&gt;&lt;br&gt;medicare &lt;br&gt;&lt;/u&gt;" style="ellipse;whiteSpace=wrap;html=1;" vertex="1" parent="1">
          <mxGeometry x="170" y="495" width="80" height="70" as="geometry" />
        </mxCell>
        <mxCell id="xvGsw13Cp8ln53Kksg4_-49" value="" style="endArrow=none;html=1;entryX=0.5;entryY=0;entryDx=0;entryDy=0;exitX=0.25;exitY=1;exitDx=0;exitDy=0;" edge="1" parent="1" source="xvGsw13Cp8ln53Kksg4_-52" target="xvGsw13Cp8ln53Kksg4_-48">
          <mxGeometry width="50" height="50" relative="1" as="geometry">
            <mxPoint x="440" y="385" as="sourcePoint" />
            <mxPoint x="830" y="355" as="targetPoint" />
          </mxGeometry>
        </mxCell>
        <mxCell id="xvGsw13Cp8ln53Kksg4_-50" value="Y/N" style="ellipse;whiteSpace=wrap;html=1;" vertex="1" parent="1">
          <mxGeometry x="400" y="475" width="100" height="40" as="geometry" />
        </mxCell>
        <mxCell id="xvGsw13Cp8ln53Kksg4_-51" value="" style="endArrow=none;html=1;exitX=1;exitY=0.5;exitDx=0;exitDy=0;" edge="1" parent="1" source="xvGsw13Cp8ln53Kksg4_-52" target="xvGsw13Cp8ln53Kksg4_-50">
          <mxGeometry width="50" height="50" relative="1" as="geometry">
            <mxPoint x="510" y="375" as="sourcePoint" />
            <mxPoint x="970" y="405" as="targetPoint" />
          </mxGeometry>
        </mxCell>
        <mxCell id="xvGsw13Cp8ln53Kksg4_-52" value="Infected" style="rounded=0;whiteSpace=wrap;html=1;" vertex="1" parent="1">
          <mxGeometry x="210" y="370" width="140" height="70" as="geometry" />
        </mxCell>
        <mxCell id="xvGsw13Cp8ln53Kksg4_-53" value="id" style="ellipse;whiteSpace=wrap;html=1;" vertex="1" parent="1">
          <mxGeometry y="435" width="80" height="40" as="geometry" />
        </mxCell>
        <mxCell id="xvGsw13Cp8ln53Kksg4_-54" value="type" style="ellipse;whiteSpace=wrap;html=1;" vertex="1" parent="1">
          <mxGeometry x="80" y="340" width="80" height="40" as="geometry" />
        </mxCell>
        <mxCell id="xvGsw13Cp8ln53Kksg4_-55" value="" style="endArrow=none;html=1;entryX=0;entryY=0.25;entryDx=0;entryDy=0;exitX=1.002;exitY=0.765;exitDx=0;exitDy=0;exitPerimeter=0;" edge="1" parent="1" source="xvGsw13Cp8ln53Kksg4_-54" target="xvGsw13Cp8ln53Kksg4_-52">
          <mxGeometry width="50" height="50" relative="1" as="geometry">
            <mxPoint x="180" y="520" as="sourcePoint" />
            <mxPoint x="230" y="470" as="targetPoint" />
          </mxGeometry>
        </mxCell>
        <mxCell id="xvGsw13Cp8ln53Kksg4_-56" value="" style="endArrow=none;html=1;entryX=0;entryY=0.5;entryDx=0;entryDy=0;exitX=1;exitY=0.5;exitDx=0;exitDy=0;" edge="1" parent="1" source="xvGsw13Cp8ln53Kksg4_-53" target="xvGsw13Cp8ln53Kksg4_-52">
          <mxGeometry width="50" height="50" relative="1" as="geometry">
            <mxPoint x="180" y="520" as="sourcePoint" />
            <mxPoint x="230" y="470" as="targetPoint" />
          </mxGeometry>
        </mxCell>
        <mxCell id="xvGsw13Cp8ln53Kksg4_-57" value="Person" style="rounded=0;whiteSpace=wrap;html=1;align=center;" vertex="1" parent="1">
          <mxGeometry x="741" y="175" width="120" height="70" as="geometry" />
        </mxCell>
        <mxCell id="xvGsw13Cp8ln53Kksg4_-58" value="First name" style="ellipse;whiteSpace=wrap;html=1;rounded=0;" vertex="1" parent="1">
          <mxGeometry x="770" y="25" width="100" height="40" as="geometry" />
        </mxCell>
        <mxCell id="xvGsw13Cp8ln53Kksg4_-59" value="" style="endArrow=none;html=1;exitX=0.5;exitY=0;exitDx=0;exitDy=0;entryX=0.5;entryY=1;entryDx=0;entryDy=0;" edge="1" parent="1" source="xvGsw13Cp8ln53Kksg4_-57" target="xvGsw13Cp8ln53Kksg4_-58">
          <mxGeometry width="50" height="50" relative="1" as="geometry">
            <mxPoint x="771" y="145" as="sourcePoint" />
            <mxPoint x="771" y="115" as="targetPoint" />
            <Array as="points" />
          </mxGeometry>
        </mxCell>
        <mxCell id="xvGsw13Cp8ln53Kksg4_-60" value="Last Name" style="ellipse;whiteSpace=wrap;html=1;" vertex="1" parent="1">
          <mxGeometry x="678.5" y="15" width="90" height="40" as="geometry" />
        </mxCell>
        <mxCell id="xvGsw13Cp8ln53Kksg4_-61" value="Brith" style="ellipse;whiteSpace=wrap;html=1;" vertex="1" parent="1">
          <mxGeometry x="471" y="75" width="100" height="40" as="geometry" />
        </mxCell>
        <mxCell id="xvGsw13Cp8ln53Kksg4_-62" value="&lt;u&gt;Medicare card number&lt;/u&gt;" style="ellipse;whiteSpace=wrap;html=1;" vertex="1" parent="1">
          <mxGeometry x="581" y="250" width="110" height="50" as="geometry" />
        </mxCell>
        <mxCell id="xvGsw13Cp8ln53Kksg4_-63" value="Telephone Number" style="ellipse;whiteSpace=wrap;html=1;" vertex="1" parent="1">
          <mxGeometry x="701" y="290" width="100" height="50" as="geometry" />
        </mxCell>
        <mxCell id="xvGsw13Cp8ln53Kksg4_-64" value="Citizenship" style="ellipse;whiteSpace=wrap;html=1;" vertex="1" parent="1">
          <mxGeometry x="833.5" y="280" width="76.5" height="45" as="geometry" />
        </mxCell>
        <mxCell id="xvGsw13Cp8ln53Kksg4_-65" value="city&amp;nbsp;" style="ellipse;whiteSpace=wrap;html=1;" vertex="1" parent="1">
          <mxGeometry x="911" y="105" width="90" height="40" as="geometry" />
        </mxCell>
        <mxCell id="xvGsw13Cp8ln53Kksg4_-66" value="Address" style="ellipse;whiteSpace=wrap;html=1;" vertex="1" parent="1">
          <mxGeometry x="911" y="165" width="100" height="40" as="geometry" />
        </mxCell>
        <mxCell id="xvGsw13Cp8ln53Kksg4_-67" value="" style="endArrow=none;html=1;entryX=0;entryY=0.5;entryDx=0;entryDy=0;exitX=1;exitY=0.5;exitDx=0;exitDy=0;" edge="1" parent="1" source="xvGsw13Cp8ln53Kksg4_-61" target="xvGsw13Cp8ln53Kksg4_-57">
          <mxGeometry width="50" height="50" relative="1" as="geometry">
            <mxPoint x="691" y="195" as="sourcePoint" />
            <mxPoint x="741" y="145" as="targetPoint" />
            <Array as="points" />
          </mxGeometry>
        </mxCell>
        <mxCell id="xvGsw13Cp8ln53Kksg4_-68" value="" style="endArrow=none;html=1;" edge="1" parent="1" target="xvGsw13Cp8ln53Kksg4_-60">
          <mxGeometry width="50" height="50" relative="1" as="geometry">
            <mxPoint x="741" y="185" as="sourcePoint" />
            <mxPoint x="831" y="185" as="targetPoint" />
          </mxGeometry>
        </mxCell>
        <mxCell id="xvGsw13Cp8ln53Kksg4_-69" value="" style="endArrow=none;html=1;exitX=0.976;exitY=0.289;exitDx=0;exitDy=0;exitPerimeter=0;" edge="1" parent="1" source="xvGsw13Cp8ln53Kksg4_-62">
          <mxGeometry width="50" height="50" relative="1" as="geometry">
            <mxPoint x="691" y="280" as="sourcePoint" />
            <mxPoint x="741" y="230" as="targetPoint" />
          </mxGeometry>
        </mxCell>
        <mxCell id="xvGsw13Cp8ln53Kksg4_-70" value="" style="endArrow=none;html=1;exitX=0.5;exitY=0;exitDx=0;exitDy=0;" edge="1" parent="1" source="xvGsw13Cp8ln53Kksg4_-63">
          <mxGeometry width="50" height="50" relative="1" as="geometry">
            <mxPoint x="746" y="290" as="sourcePoint" />
            <mxPoint x="796" y="250" as="targetPoint" />
          </mxGeometry>
        </mxCell>
        <mxCell id="xvGsw13Cp8ln53Kksg4_-71" value="" style="endArrow=none;html=1;" edge="1" parent="1">
          <mxGeometry width="50" height="50" relative="1" as="geometry">
            <mxPoint x="841" y="175" as="sourcePoint" />
            <mxPoint x="841" y="175" as="targetPoint" />
            <Array as="points">
              <mxPoint x="921" y="135" />
            </Array>
          </mxGeometry>
        </mxCell>
        <mxCell id="xvGsw13Cp8ln53Kksg4_-72" value="" style="endArrow=none;html=1;exitX=1;exitY=0.5;exitDx=0;exitDy=0;" edge="1" parent="1" source="xvGsw13Cp8ln53Kksg4_-57">
          <mxGeometry width="50" height="50" relative="1" as="geometry">
            <mxPoint x="871" y="245" as="sourcePoint" />
            <mxPoint x="921" y="195" as="targetPoint" />
          </mxGeometry>
        </mxCell>
        <mxCell id="xvGsw13Cp8ln53Kksg4_-73" value="" style="endArrow=none;html=1;" edge="1" parent="1" target="xvGsw13Cp8ln53Kksg4_-64">
          <mxGeometry width="50" height="50" relative="1" as="geometry">
            <mxPoint x="861" y="245" as="sourcePoint" />
            <mxPoint x="831" y="185" as="targetPoint" />
            <Array as="points" />
          </mxGeometry>
        </mxCell>
        <mxCell id="xvGsw13Cp8ln53Kksg4_-74" value="Postal Code" style="ellipse;whiteSpace=wrap;html=1;" vertex="1" parent="1">
          <mxGeometry x="921" y="230" width="110" height="45" as="geometry" />
        </mxCell>
        <mxCell id="xvGsw13Cp8ln53Kksg4_-75" value="e-mail Address" style="ellipse;whiteSpace=wrap;html=1;" vertex="1" parent="1">
          <mxGeometry x="551" y="35" width="100" height="50" as="geometry" />
        </mxCell>
        <mxCell id="xvGsw13Cp8ln53Kksg4_-76" value="Province" style="ellipse;whiteSpace=wrap;html=1;" vertex="1" parent="1">
          <mxGeometry x="883.75" y="25" width="105" height="30" as="geometry" />
        </mxCell>
        <mxCell id="xvGsw13Cp8ln53Kksg4_-77" value="" style="endArrow=none;html=1;entryX=-0.011;entryY=0.381;entryDx=0;entryDy=0;entryPerimeter=0;exitX=1;exitY=0.5;exitDx=0;exitDy=0;" edge="1" parent="1" source="xvGsw13Cp8ln53Kksg4_-75" target="xvGsw13Cp8ln53Kksg4_-57">
          <mxGeometry width="50" height="50" relative="1" as="geometry">
            <mxPoint x="661" y="170" as="sourcePoint" />
            <mxPoint x="711" y="120" as="targetPoint" />
          </mxGeometry>
        </mxCell>
        <mxCell id="xvGsw13Cp8ln53Kksg4_-78" value="" style="endArrow=none;html=1;entryX=0.292;entryY=1.022;entryDx=0;entryDy=0;entryPerimeter=0;" edge="1" parent="1" target="xvGsw13Cp8ln53Kksg4_-76">
          <mxGeometry width="50" height="50" relative="1" as="geometry">
            <mxPoint x="821" y="175" as="sourcePoint" />
            <mxPoint x="831" y="175" as="targetPoint" />
            <Array as="points">
              <mxPoint x="831" y="155" />
            </Array>
          </mxGeometry>
        </mxCell>
        <mxCell id="xvGsw13Cp8ln53Kksg4_-79" value="" style="endArrow=none;html=1;exitX=0.024;exitY=0.363;exitDx=0;exitDy=0;exitPerimeter=0;entryX=1;entryY=0.75;entryDx=0;entryDy=0;" edge="1" parent="1" source="xvGsw13Cp8ln53Kksg4_-74" target="xvGsw13Cp8ln53Kksg4_-57">
          <mxGeometry width="50" height="50" relative="1" as="geometry">
            <mxPoint x="781" y="225" as="sourcePoint" />
            <mxPoint x="831" y="175" as="targetPoint" />
            <Array as="points" />
          </mxGeometry>
        </mxCell>
        <mxCell id="xvGsw13Cp8ln53Kksg4_-81" value="id" style="ellipse;whiteSpace=wrap;html=1;" vertex="1" parent="1">
          <mxGeometry x="451" y="135" width="100" height="40" as="geometry" />
        </mxCell>
        <mxCell id="xvGsw13Cp8ln53Kksg4_-82" value="citizenship" style="ellipse;whiteSpace=wrap;html=1;" vertex="1" parent="1">
          <mxGeometry x="481" y="180" width="100" height="40" as="geometry" />
        </mxCell>
        <mxCell id="xvGsw13Cp8ln53Kksg4_-83" value="" style="endArrow=none;html=1;entryX=0;entryY=0.75;entryDx=0;entryDy=0;exitX=1;exitY=0.5;exitDx=0;exitDy=0;" edge="1" parent="1" source="xvGsw13Cp8ln53Kksg4_-82">
          <mxGeometry width="50" height="50" relative="1" as="geometry">
            <mxPoint x="580.9999999999918" y="239.9999999999999" as="sourcePoint" />
            <mxPoint x="741" y="232.4999999999999" as="targetPoint" />
          </mxGeometry>
        </mxCell>
        <mxCell id="xvGsw13Cp8ln53Kksg4_-84" value="" style="endArrow=none;html=1;entryX=0;entryY=0.5;entryDx=0;entryDy=0;exitX=1;exitY=0.5;exitDx=0;exitDy=0;" edge="1" parent="1" source="xvGsw13Cp8ln53Kksg4_-81" target="xvGsw13Cp8ln53Kksg4_-57">
          <mxGeometry width="50" height="50" relative="1" as="geometry">
            <mxPoint x="631" y="235" as="sourcePoint" />
            <mxPoint x="681" y="185" as="targetPoint" />
          </mxGeometry>
        </mxCell>
        <mxCell id="xvGsw13Cp8ln53Kksg4_-85" value="Province" style="rounded=0;whiteSpace=wrap;html=1;" vertex="1" parent="1">
          <mxGeometry x="1971" y="115" width="120" height="60" as="geometry" />
        </mxCell>
        <mxCell id="xvGsw13Cp8ln53Kksg4_-86" value="&lt;u&gt;p_id&lt;/u&gt;" style="ellipse;whiteSpace=wrap;html=1;" vertex="1" parent="1">
          <mxGeometry x="1891" y="-10" width="100" height="50" as="geometry" />
        </mxCell>
        <mxCell id="xvGsw13Cp8ln53Kksg4_-87" value="group_id" style="ellipse;whiteSpace=wrap;html=1;" vertex="1" parent="1">
          <mxGeometry x="1901" y="230" width="100" height="50" as="geometry" />
        </mxCell>
        <mxCell id="xvGsw13Cp8ln53Kksg4_-88" value="province" style="ellipse;whiteSpace=wrap;html=1;" vertex="1" parent="1">
          <mxGeometry x="2020" y="220" width="100" height="50" as="geometry" />
        </mxCell>
        <mxCell id="xvGsw13Cp8ln53Kksg4_-89" value="" style="endArrow=none;html=1;exitX=1;exitY=0.5;exitDx=0;exitDy=0;" edge="1" parent="1" source="xvGsw13Cp8ln53Kksg4_-86">
          <mxGeometry width="50" height="50" relative="1" as="geometry">
            <mxPoint x="1976" y="65" as="sourcePoint" />
            <mxPoint x="1975" y="124.8739495798327" as="targetPoint" />
          </mxGeometry>
        </mxCell>
        <mxCell id="xvGsw13Cp8ln53Kksg4_-90" value="" style="endArrow=none;html=1;exitX=1;exitY=0.5;exitDx=0;exitDy=0;entryX=0;entryY=0.75;entryDx=0;entryDy=0;" edge="1" parent="1" source="xvGsw13Cp8ln53Kksg4_-87">
          <mxGeometry width="50" height="50" relative="1" as="geometry">
            <mxPoint x="1976" y="65" as="sourcePoint" />
            <mxPoint x="1975" y="155" as="targetPoint" />
          </mxGeometry>
        </mxCell>
        <mxCell id="xvGsw13Cp8ln53Kksg4_-91" value="" style="endArrow=none;html=1;exitX=0.5;exitY=0;exitDx=0;exitDy=0;entryX=0.25;entryY=1;entryDx=0;entryDy=0;" edge="1" parent="1" source="xvGsw13Cp8ln53Kksg4_-88">
          <mxGeometry width="50" height="50" relative="1" as="geometry">
            <mxPoint x="1976" y="65" as="sourcePoint" />
            <mxPoint x="2005" y="170" as="targetPoint" />
          </mxGeometry>
        </mxCell>
        <mxCell id="xvGsw13Cp8ln53Kksg4_-93" value="&lt;u&gt;facilityID&lt;/u&gt;" style="ellipse;whiteSpace=wrap;html=1;" vertex="1" parent="1">
          <mxGeometry x="1330" y="1050" width="100" height="50" as="geometry" />
        </mxCell>
        <mxCell id="xvGsw13Cp8ln53Kksg4_-94" value="DATE" style="ellipse;whiteSpace=wrap;html=1;" vertex="1" parent="1">
          <mxGeometry x="1340" y="1120" width="100" height="50" as="geometry" />
        </mxCell>
        <mxCell id="xvGsw13Cp8ln53Kksg4_-95" value="s_id" style="ellipse;whiteSpace=wrap;html=1;" vertex="1" parent="1">
          <mxGeometry x="1424" y="1190" width="100" height="50" as="geometry" />
        </mxCell>
        <mxCell id="xvGsw13Cp8ln53Kksg4_-96" value="" style="endArrow=none;html=1;exitX=1;exitY=0.5;exitDx=0;exitDy=0;" edge="1" parent="1" source="xvGsw13Cp8ln53Kksg4_-93">
          <mxGeometry width="50" height="50" relative="1" as="geometry">
            <mxPoint x="1490" y="1030" as="sourcePoint" />
            <mxPoint x="1489" y="1089.873949579832" as="targetPoint" />
          </mxGeometry>
        </mxCell>
        <mxCell id="xvGsw13Cp8ln53Kksg4_-97" value="" style="endArrow=none;html=1;exitX=1;exitY=0.5;exitDx=0;exitDy=0;entryX=0.143;entryY=0.642;entryDx=0;entryDy=0;entryPerimeter=0;" edge="1" parent="1" source="xvGsw13Cp8ln53Kksg4_-94" target="xvGsw13Cp8ln53Kksg4_-140">
          <mxGeometry width="50" height="50" relative="1" as="geometry">
            <mxPoint x="1490" y="1030" as="sourcePoint" />
            <mxPoint x="1489" y="1120.0000000000002" as="targetPoint" />
          </mxGeometry>
        </mxCell>
        <mxCell id="xvGsw13Cp8ln53Kksg4_-98" value="" style="endArrow=none;html=1;exitX=0.5;exitY=0;exitDx=0;exitDy=0;entryX=0.336;entryY=0.85;entryDx=0;entryDy=0;entryPerimeter=0;" edge="1" parent="1" source="xvGsw13Cp8ln53Kksg4_-95" target="xvGsw13Cp8ln53Kksg4_-140">
          <mxGeometry width="50" height="50" relative="1" as="geometry">
            <mxPoint x="1490" y="1030" as="sourcePoint" />
            <mxPoint x="1519" y="1135.0000000000002" as="targetPoint" />
          </mxGeometry>
        </mxCell>
        <mxCell id="xvGsw13Cp8ln53Kksg4_-99" value="quantity" style="ellipse;whiteSpace=wrap;html=1;" vertex="1" parent="1">
          <mxGeometry x="1449.5" y="965" width="100" height="50" as="geometry" />
        </mxCell>
        <mxCell id="xvGsw13Cp8ln53Kksg4_-100" value="" style="endArrow=none;html=1;entryX=0.5;entryY=1;entryDx=0;entryDy=0;exitX=0.5;exitY=1;exitDx=0;exitDy=0;" edge="1" parent="1" source="xvGsw13Cp8ln53Kksg4_-99" target="xvGsw13Cp8ln53Kksg4_-140">
          <mxGeometry width="50" height="50" relative="1" as="geometry">
            <mxPoint x="1500" y="1020" as="sourcePoint" />
            <mxPoint x="1579" y="1135.0000000000002" as="targetPoint" />
          </mxGeometry>
        </mxCell>
        <mxCell id="xvGsw13Cp8ln53Kksg4_-101" value="&lt;u&gt;ship_id&lt;/u&gt;" style="ellipse;whiteSpace=wrap;html=1;" vertex="1" parent="1">
          <mxGeometry x="1644" y="1150" width="100" height="50" as="geometry" />
        </mxCell>
        <mxCell id="xvGsw13Cp8ln53Kksg4_-103" value="" style="endArrow=none;html=1;entryX=0;entryY=0;entryDx=0;entryDy=0;exitX=1;exitY=1;exitDx=0;exitDy=0;" edge="1" parent="1" source="xvGsw13Cp8ln53Kksg4_-140" target="xvGsw13Cp8ln53Kksg4_-101">
          <mxGeometry width="50" height="50" relative="1" as="geometry">
            <mxPoint x="1609" y="1135.0000000000002" as="sourcePoint" />
            <mxPoint x="1574" y="1090" as="targetPoint" />
          </mxGeometry>
        </mxCell>
        <mxCell id="xvGsw13Cp8ln53Kksg4_-105" value="&lt;u&gt;trans_id&lt;/u&gt;" style="ellipse;whiteSpace=wrap;html=1;" vertex="1" parent="1">
          <mxGeometry x="2095" y="950" width="100" height="50" as="geometry" />
        </mxCell>
        <mxCell id="xvGsw13Cp8ln53Kksg4_-106" value="count" style="ellipse;whiteSpace=wrap;html=1;" vertex="1" parent="1">
          <mxGeometry x="2110" y="1220" width="100" height="50" as="geometry" />
        </mxCell>
        <mxCell id="xvGsw13Cp8ln53Kksg4_-107" value="t_id" style="ellipse;whiteSpace=wrap;html=1;" vertex="1" parent="1">
          <mxGeometry x="2220" y="1200" width="100" height="50" as="geometry" />
        </mxCell>
        <mxCell id="xvGsw13Cp8ln53Kksg4_-108" value="" style="endArrow=none;html=1;exitX=1;exitY=0.5;exitDx=0;exitDy=0;" edge="1" parent="1" source="xvGsw13Cp8ln53Kksg4_-105">
          <mxGeometry width="50" height="50" relative="1" as="geometry">
            <mxPoint x="2115" y="1020" as="sourcePoint" />
            <mxPoint x="2179.25" y="1065" as="targetPoint" />
          </mxGeometry>
        </mxCell>
        <mxCell id="xvGsw13Cp8ln53Kksg4_-109" value="" style="endArrow=none;html=1;exitX=1;exitY=0.5;exitDx=0;exitDy=0;entryX=0;entryY=1;entryDx=0;entryDy=0;" edge="1" parent="1" source="xvGsw13Cp8ln53Kksg4_-106" target="xvGsw13Cp8ln53Kksg4_-146">
          <mxGeometry width="50" height="50" relative="1" as="geometry">
            <mxPoint x="2115" y="1020" as="sourcePoint" />
            <mxPoint x="2114" y="1110" as="targetPoint" />
          </mxGeometry>
        </mxCell>
        <mxCell id="xvGsw13Cp8ln53Kksg4_-110" value="" style="endArrow=none;html=1;exitX=0.5;exitY=0;exitDx=0;exitDy=0;entryX=0.5;entryY=1;entryDx=0;entryDy=0;" edge="1" parent="1" source="xvGsw13Cp8ln53Kksg4_-107" target="xvGsw13Cp8ln53Kksg4_-146">
          <mxGeometry width="50" height="50" relative="1" as="geometry">
            <mxPoint x="2115" y="1020" as="sourcePoint" />
            <mxPoint x="2144" y="1125" as="targetPoint" />
          </mxGeometry>
        </mxCell>
        <mxCell id="xvGsw13Cp8ln53Kksg4_-111" value="outF" style="ellipse;whiteSpace=wrap;html=1;" vertex="1" parent="1">
          <mxGeometry x="2320" y="1140" width="100" height="50" as="geometry" />
        </mxCell>
        <mxCell id="xvGsw13Cp8ln53Kksg4_-112" value="" style="endArrow=none;html=1;entryX=1;entryY=1;entryDx=0;entryDy=0;exitX=0;exitY=0;exitDx=0;exitDy=0;" edge="1" parent="1" source="xvGsw13Cp8ln53Kksg4_-111" target="xvGsw13Cp8ln53Kksg4_-146">
          <mxGeometry width="50" height="50" relative="1" as="geometry">
            <mxPoint x="2149" y="1130" as="sourcePoint" />
            <mxPoint x="2204" y="1125" as="targetPoint" />
          </mxGeometry>
        </mxCell>
        <mxCell id="xvGsw13Cp8ln53Kksg4_-113" value="&lt;u&gt;inF&lt;/u&gt;" style="ellipse;whiteSpace=wrap;html=1;" vertex="1" parent="1">
          <mxGeometry x="2269" y="990" width="100" height="50" as="geometry" />
        </mxCell>
        <mxCell id="xvGsw13Cp8ln53Kksg4_-114" value="" style="endArrow=none;html=1;" edge="1" parent="1">
          <mxGeometry width="50" height="50" relative="1" as="geometry">
            <mxPoint x="2234" y="1080" as="sourcePoint" />
            <mxPoint x="2270" y="1015" as="targetPoint" />
          </mxGeometry>
        </mxCell>
        <mxCell id="xvGsw13Cp8ln53Kksg4_-115" value="Vaccination" style="rounded=0;whiteSpace=wrap;html=1;" vertex="1" parent="1">
          <mxGeometry x="1737" y="1480" width="110" height="50" as="geometry" />
        </mxCell>
        <mxCell id="xvGsw13Cp8ln53Kksg4_-116" value="Status" style="ellipse;whiteSpace=wrap;html=1;" vertex="1" parent="1">
          <mxGeometry x="1719.5" y="1680" width="105" height="40" as="geometry" />
        </mxCell>
        <mxCell id="xvGsw13Cp8ln53Kksg4_-117" value="&lt;u&gt;V_ID&lt;/u&gt;" style="ellipse;whiteSpace=wrap;html=1;" vertex="1" parent="1">
          <mxGeometry x="1969.5" y="1660" width="110" height="40" as="geometry" />
        </mxCell>
        <mxCell id="xvGsw13Cp8ln53Kksg4_-118" value="Type of Vaccination" style="ellipse;whiteSpace=wrap;html=1;" vertex="1" parent="1">
          <mxGeometry x="1464.5" y="1685" width="105" height="40" as="geometry" />
        </mxCell>
        <mxCell id="xvGsw13Cp8ln53Kksg4_-119" value="" style="endArrow=none;html=1;entryX=0;entryY=1;entryDx=0;entryDy=0;exitX=0.5;exitY=0;exitDx=0;exitDy=0;" edge="1" parent="1" source="xvGsw13Cp8ln53Kksg4_-118" target="xvGsw13Cp8ln53Kksg4_-115">
          <mxGeometry width="50" height="50" relative="1" as="geometry">
            <mxPoint x="999.5" y="1260" as="sourcePoint" />
            <mxPoint x="1049.5" y="1210" as="targetPoint" />
          </mxGeometry>
        </mxCell>
        <mxCell id="xvGsw13Cp8ln53Kksg4_-120" value="" style="endArrow=none;html=1;entryX=0.369;entryY=0.039;entryDx=0;entryDy=0;entryPerimeter=0;startArrow=none;" edge="1" parent="1" target="xvGsw13Cp8ln53Kksg4_-116">
          <mxGeometry width="50" height="50" relative="1" as="geometry">
            <mxPoint x="1792.5" y="1530" as="sourcePoint" />
            <mxPoint x="1049.5" y="1210" as="targetPoint" />
          </mxGeometry>
        </mxCell>
        <mxCell id="xvGsw13Cp8ln53Kksg4_-121" value="" style="endArrow=none;html=1;entryX=1;entryY=1;entryDx=0;entryDy=0;" edge="1" parent="1" source="xvGsw13Cp8ln53Kksg4_-117" target="xvGsw13Cp8ln53Kksg4_-115">
          <mxGeometry width="50" height="50" relative="1" as="geometry">
            <mxPoint x="999.5" y="1260" as="sourcePoint" />
            <mxPoint x="1849.5" y="1520" as="targetPoint" />
          </mxGeometry>
        </mxCell>
        <mxCell id="xvGsw13Cp8ln53Kksg4_-122" value="&#xa;&#xa;&lt;span style=&quot;color: rgb(51, 51, 51); font-family: arial, &amp;quot;microsoft yahei&amp;quot;, &amp;quot;\\5fae软雅黑&amp;quot;, &amp;quot;\\5b8b体&amp;quot;, &amp;quot;malgun gothic&amp;quot;, meiryo, sans-serif; font-size: 14px; font-style: normal; font-variant: normal; font-weight: normal; letter-spacing: normal; line-height: 25.9896px; text-align: justify; text-indent: 0px; text-transform: none; word-spacing: 0px; background-color: rgb(247, 248, 250); display: inline; float: none;&quot;&gt;Vaccination in&lt;/span&gt;&#xa;&#xa;" style="rhombus;whiteSpace=wrap;html=1;" vertex="1" parent="1">
          <mxGeometry x="1419.5" y="1480" width="130" height="50" as="geometry" />
        </mxCell>
        <mxCell id="xvGsw13Cp8ln53Kksg4_-123" value="SUSPENDED DATE" style="ellipse;whiteSpace=wrap;html=1;" vertex="1" parent="1">
          <mxGeometry x="1597" y="1680" width="90" height="50" as="geometry" />
        </mxCell>
        <mxCell id="xvGsw13Cp8ln53Kksg4_-124" value="APPROVEL DATE" style="ellipse;whiteSpace=wrap;html=1;" vertex="1" parent="1">
          <mxGeometry x="1859.5" y="1680" width="90" height="40" as="geometry" />
        </mxCell>
        <mxCell id="xvGsw13Cp8ln53Kksg4_-125" value="" style="endArrow=none;html=1;entryX=0.5;entryY=0;entryDx=0;entryDy=0;exitX=0.25;exitY=1;exitDx=0;exitDy=0;" edge="1" parent="1" source="xvGsw13Cp8ln53Kksg4_-115" target="xvGsw13Cp8ln53Kksg4_-123">
          <mxGeometry width="50" height="50" relative="1" as="geometry">
            <mxPoint x="1019.5" y="1410" as="sourcePoint" />
            <mxPoint x="1259.5" y="1160" as="targetPoint" />
          </mxGeometry>
        </mxCell>
        <mxCell id="xvGsw13Cp8ln53Kksg4_-126" value="" style="endArrow=none;html=1;exitX=0.75;exitY=1;exitDx=0;exitDy=0;entryX=0.5;entryY=0;entryDx=0;entryDy=0;" edge="1" parent="1" source="xvGsw13Cp8ln53Kksg4_-115" target="xvGsw13Cp8ln53Kksg4_-124">
          <mxGeometry width="50" height="50" relative="1" as="geometry">
            <mxPoint x="1209.5" y="1210" as="sourcePoint" />
            <mxPoint x="1259.5" y="1160" as="targetPoint" />
          </mxGeometry>
        </mxCell>
        <mxCell id="xvGsw13Cp8ln53Kksg4_-127" value="" style="endArrow=none;html=1;entryX=0;entryY=0.5;entryDx=0;entryDy=0;exitX=1;exitY=0.5;exitDx=0;exitDy=0;" edge="1" parent="1" source="xvGsw13Cp8ln53Kksg4_-122" target="xvGsw13Cp8ln53Kksg4_-115">
          <mxGeometry width="50" height="50" relative="1" as="geometry">
            <mxPoint x="1519.5" y="1570" as="sourcePoint" />
            <mxPoint x="1569.5" y="1520" as="targetPoint" />
          </mxGeometry>
        </mxCell>
        <mxCell id="xvGsw13Cp8ln53Kksg4_-128" value="" style="endArrow=none;html=1;exitX=1;exitY=0.5;exitDx=0;exitDy=0;" edge="1" parent="1" source="xvGsw13Cp8ln53Kksg4_-115">
          <mxGeometry width="50" height="50" relative="1" as="geometry">
            <mxPoint x="1729.5" y="1330" as="sourcePoint" />
            <mxPoint x="2199.5" y="1510" as="targetPoint" />
          </mxGeometry>
        </mxCell>
        <mxCell id="xvGsw13Cp8ln53Kksg4_-129" value="" style="rhombus;whiteSpace=wrap;html=1;" vertex="1" parent="1">
          <mxGeometry x="1136" y="175" width="120" height="80" as="geometry" />
        </mxCell>
        <mxCell id="xvGsw13Cp8ln53Kksg4_-134" value="Grouped" style="rhombus;whiteSpace=wrap;html=1;" vertex="1" parent="1">
          <mxGeometry x="1161" y="190" width="75" height="50" as="geometry" />
        </mxCell>
        <mxCell id="xvGsw13Cp8ln53Kksg4_-135" value="" style="endArrow=none;html=1;" edge="1" parent="1">
          <mxGeometry width="50" height="50" relative="1" as="geometry">
            <mxPoint x="861" y="215" as="sourcePoint" />
            <mxPoint x="1141" y="215" as="targetPoint" />
          </mxGeometry>
        </mxCell>
        <mxCell id="xvGsw13Cp8ln53Kksg4_-136" value="" style="endArrow=classic;html=1;exitX=1;exitY=0.5;exitDx=0;exitDy=0;" edge="1" parent="1" source="xvGsw13Cp8ln53Kksg4_-129">
          <mxGeometry width="50" height="50" relative="1" as="geometry">
            <mxPoint x="1101" y="425" as="sourcePoint" />
            <mxPoint x="1389" y="215" as="targetPoint" />
          </mxGeometry>
        </mxCell>
        <mxCell id="xvGsw13Cp8ln53Kksg4_-137" value="Have" style="rhombus;whiteSpace=wrap;html=1;" vertex="1" parent="1">
          <mxGeometry x="400" y="220" width="80" height="80" as="geometry" />
        </mxCell>
        <mxCell id="xvGsw13Cp8ln53Kksg4_-138" value="" style="endArrow=none;html=1;entryX=0;entryY=0.5;entryDx=0;entryDy=0;exitX=1;exitY=0.5;exitDx=0;exitDy=0;" edge="1" parent="1" source="xvGsw13Cp8ln53Kksg4_-137" target="xvGsw13Cp8ln53Kksg4_-57">
          <mxGeometry width="50" height="50" relative="1" as="geometry">
            <mxPoint x="420" y="540" as="sourcePoint" />
            <mxPoint x="470" y="490" as="targetPoint" />
          </mxGeometry>
        </mxCell>
        <mxCell id="xvGsw13Cp8ln53Kksg4_-139" value="" style="endArrow=none;html=1;entryX=0.5;entryY=1;entryDx=0;entryDy=0;exitX=1;exitY=0;exitDx=0;exitDy=0;" edge="1" parent="1" source="xvGsw13Cp8ln53Kksg4_-52" target="xvGsw13Cp8ln53Kksg4_-137">
          <mxGeometry width="50" height="50" relative="1" as="geometry">
            <mxPoint x="420" y="390" as="sourcePoint" />
            <mxPoint x="470" y="340" as="targetPoint" />
          </mxGeometry>
        </mxCell>
        <mxCell id="xvGsw13Cp8ln53Kksg4_-140" value="Shipment" style="rhombus;whiteSpace=wrap;html=1;" vertex="1" parent="1">
          <mxGeometry x="1487.5" y="1055" width="150" height="80" as="geometry" />
        </mxCell>
        <mxCell id="xvGsw13Cp8ln53Kksg4_-141" value="" style="endArrow=none;html=1;entryX=0.5;entryY=1;entryDx=0;entryDy=0;exitX=0.5;exitY=0;exitDx=0;exitDy=0;" edge="1" parent="1" source="xvGsw13Cp8ln53Kksg4_-140" target="xvGsw13Cp8ln53Kksg4_-14">
          <mxGeometry width="50" height="50" relative="1" as="geometry">
            <mxPoint x="1560" y="970" as="sourcePoint" />
            <mxPoint x="1610" y="920" as="targetPoint" />
          </mxGeometry>
        </mxCell>
        <mxCell id="xvGsw13Cp8ln53Kksg4_-142" value="" style="endArrow=none;html=1;exitX=0.5;exitY=0;exitDx=0;exitDy=0;entryX=0.5;entryY=1;entryDx=0;entryDy=0;" edge="1" parent="1" source="xvGsw13Cp8ln53Kksg4_-115" target="xvGsw13Cp8ln53Kksg4_-140">
          <mxGeometry width="50" height="50" relative="1" as="geometry">
            <mxPoint x="1820" y="1310" as="sourcePoint" />
            <mxPoint x="1860" y="1130" as="targetPoint" />
          </mxGeometry>
        </mxCell>
        <mxCell id="xvGsw13Cp8ln53Kksg4_-145" value="" style="endArrow=none;html=1;entryX=0;entryY=0.5;entryDx=0;entryDy=0;exitX=1;exitY=0;exitDx=0;exitDy=0;" edge="1" parent="1" source="xvGsw13Cp8ln53Kksg4_-115" target="xvGsw13Cp8ln53Kksg4_-146">
          <mxGeometry width="50" height="50" relative="1" as="geometry">
            <mxPoint x="1760" y="1270" as="sourcePoint" />
            <mxPoint x="2114" y="1095" as="targetPoint" />
          </mxGeometry>
        </mxCell>
        <mxCell id="xvGsw13Cp8ln53Kksg4_-146" value="Transfer" style="rhombus;whiteSpace=wrap;html=1;" vertex="1" parent="1">
          <mxGeometry x="2120" y="1045" width="120" height="80" as="geometry" />
        </mxCell>
        <mxCell id="xvGsw13Cp8ln53Kksg4_-147" value="" style="endArrow=none;html=1;entryX=0.5;entryY=1;entryDx=0;entryDy=0;exitX=0;exitY=0;exitDx=0;exitDy=0;" edge="1" parent="1" source="xvGsw13Cp8ln53Kksg4_-146" target="xvGsw13Cp8ln53Kksg4_-14">
          <mxGeometry width="50" height="50" relative="1" as="geometry">
            <mxPoint x="1760" y="1270" as="sourcePoint" />
            <mxPoint x="1810" y="1220" as="targetPoint" />
          </mxGeometry>
        </mxCell>
        <mxCell id="xvGsw13Cp8ln53Kksg4_-153" value="" style="endArrow=none;html=1;entryX=0;entryY=0.5;entryDx=0;entryDy=0;exitX=1;exitY=0.5;exitDx=0;exitDy=0;" edge="1" parent="1" source="zyeRF9RpLuEIu011Ur1t-97" target="xvGsw13Cp8ln53Kksg4_-14">
          <mxGeometry width="50" height="50" relative="1" as="geometry">
            <mxPoint x="1030" y="700" as="sourcePoint" />
            <mxPoint x="1080" y="650" as="targetPoint" />
          </mxGeometry>
        </mxCell>
        <mxCell id="xvGsw13Cp8ln53Kksg4_-155" value="" style="endArrow=none;html=1;entryX=0;entryY=0.5;entryDx=0;entryDy=0;exitX=1;exitY=0.75;exitDx=0;exitDy=0;" edge="1" parent="1" source="zyeRF9RpLuEIu011Ur1t-2" target="zyeRF9RpLuEIu011Ur1t-97">
          <mxGeometry width="50" height="50" relative="1" as="geometry">
            <mxPoint x="280" y="700" as="sourcePoint" />
            <mxPoint x="330" y="650" as="targetPoint" />
          </mxGeometry>
        </mxCell>
        <mxCell id="xvGsw13Cp8ln53Kksg4_-157" value="set in" style="rhombus;whiteSpace=wrap;html=1;" vertex="1" parent="1">
          <mxGeometry x="1700" y="110" width="80" height="80" as="geometry" />
        </mxCell>
        <mxCell id="xvGsw13Cp8ln53Kksg4_-158" value="" style="endArrow=none;html=1;entryX=0;entryY=0.5;entryDx=0;entryDy=0;exitX=1;exitY=0.5;exitDx=0;exitDy=0;" edge="1" parent="1" source="xvGsw13Cp8ln53Kksg4_-33" target="xvGsw13Cp8ln53Kksg4_-157">
          <mxGeometry width="50" height="50" relative="1" as="geometry">
            <mxPoint x="1311" y="475" as="sourcePoint" />
            <mxPoint x="1361" y="425" as="targetPoint" />
          </mxGeometry>
        </mxCell>
        <mxCell id="xvGsw13Cp8ln53Kksg4_-159" value="" style="endArrow=none;html=1;entryX=0;entryY=0.5;entryDx=0;entryDy=0;exitX=1;exitY=0.5;exitDx=0;exitDy=0;" edge="1" parent="1" source="xvGsw13Cp8ln53Kksg4_-157" target="xvGsw13Cp8ln53Kksg4_-85">
          <mxGeometry width="50" height="50" relative="1" as="geometry">
            <mxPoint x="1311" y="475" as="sourcePoint" />
            <mxPoint x="1361" y="425" as="targetPoint" />
          </mxGeometry>
        </mxCell>
      </root>
    </mxGraphModel>
  </diagram>
</mxfile>
